<svg width="882" height="284" viewBox="0 0 882 284" fill="none" xmlns="http://www.w3.org/2000/svg">
<path d="M881.198 281.354L0.84668 283.594L0 2.24023L880.352 0L881.198 281.354ZM535.517 232.192C533.17 232.192 531.378 233.121 530.141 234.977L529.597 232.576H524.413V255.776H530.781V247.937C531.976 249.216 533.554 249.856 535.517 249.856C537.799 249.856 539.56 249.12 540.797 247.648C542.034 246.155 542.653 243.958 542.653 241.057C542.653 238.134 542.034 235.926 540.797 234.433C539.56 232.939 537.799 232.192 535.517 232.192ZM207.892 225.921L202.771 251.009H206.676L211.764 225.921H207.892ZM71.2422 232.192C68.2769 232.192 65.951 232.939 64.2656 234.433C62.5805 235.926 61.7383 238.123 61.7383 241.024C61.7383 243.926 62.5805 246.123 64.2656 247.616C65.951 249.11 68.2769 249.856 71.2422 249.856C74.2074 249.856 76.5325 249.109 78.2178 247.616C79.9244 246.102 80.7783 243.904 80.7783 241.024C80.7783 238.145 79.9244 235.958 78.2178 234.465C76.5325 232.95 74.2074 232.192 71.2422 232.192ZM108.138 227.457L106.762 232.576H104.138V236.896H106.506V245.345C106.506 246.987 107.007 248.15 108.01 248.833C109.034 249.515 110.484 249.856 112.361 249.856C112.959 249.856 113.663 249.803 114.474 249.696C115.284 249.59 115.945 249.451 116.457 249.28V245.536H114.665C113.983 245.536 113.514 245.366 113.258 245.024C113.002 244.662 112.873 244.096 112.873 243.328V236.896H116.457V232.576H112.873V227.457H108.138ZM138.805 232.192C135.839 232.192 133.513 232.939 131.828 234.433C130.143 235.926 129.301 238.123 129.301 241.024C129.301 243.99 130.165 246.209 131.893 247.681C133.621 249.131 136.053 249.856 139.188 249.856C142.175 249.856 144.448 249.281 146.005 248.129C147.562 246.977 148.341 245.376 148.341 243.328H142.164C142.164 244.075 141.908 244.672 141.396 245.12C140.906 245.568 140.127 245.793 139.061 245.793C137.887 245.793 137.023 245.483 136.469 244.864C135.935 244.246 135.668 243.328 135.668 242.112H148.341V241.024C148.341 238.038 147.519 235.819 145.876 234.368C144.255 232.918 141.898 232.192 138.805 232.192ZM183.86 226.272V234.145C182.644 232.843 181.065 232.192 179.124 232.192C176.841 232.192 175.081 232.939 173.844 234.433C172.607 235.905 171.988 238.091 171.988 240.992C171.988 243.915 172.607 246.123 173.844 247.616C175.081 249.11 176.841 249.856 179.124 249.856C181.471 249.856 183.263 248.928 184.5 247.072L185.044 249.473H190.228V226.272H183.86ZM245.599 232.576V243.521C245.599 245.569 246.089 247.137 247.07 248.225C248.052 249.313 249.524 249.856 251.486 249.856C252.681 249.856 253.811 249.601 254.878 249.089C255.966 248.556 256.841 247.829 257.502 246.912L257.918 249.473H263.134V232.576H256.767V242.496C256.767 243.243 256.521 243.873 256.03 244.385C255.54 244.897 254.9 245.152 254.11 245.152C253.428 245.152 252.894 244.939 252.51 244.513C252.147 244.065 251.966 243.478 251.966 242.753V232.576H245.599ZM307.007 232.192C304.49 232.192 302.441 232.63 300.862 233.505C299.305 234.38 298.526 235.852 298.526 237.921C298.526 239.201 298.889 240.203 299.614 240.929C300.34 241.633 301.183 242.134 302.143 242.433C303.124 242.731 304.372 243.009 305.887 243.265C307.145 243.478 308.052 243.681 308.606 243.873C309.161 244.065 309.438 244.374 309.438 244.801C309.438 245.633 308.553 246.049 306.782 246.049C306.121 246.049 305.492 245.91 304.895 245.633C304.319 245.334 304.02 244.822 303.999 244.097V243.969H298.079C298.079 245.313 298.495 246.422 299.327 247.297C300.159 248.171 301.236 248.822 302.559 249.249C303.881 249.654 305.289 249.856 306.782 249.856C309.385 249.856 311.487 249.398 313.087 248.48C314.708 247.563 315.518 246.027 315.519 243.873C315.519 242.55 315.145 241.526 314.398 240.801C313.652 240.054 312.777 239.542 311.774 239.265C310.772 238.966 309.523 238.709 308.03 238.496C306.815 238.304 305.94 238.123 305.406 237.952C304.873 237.781 304.607 237.494 304.606 237.089C304.606 236.364 305.375 236.001 306.911 236.001C307.487 236.001 307.967 236.107 308.351 236.32C308.905 236.576 309.183 237.014 309.183 237.633H315.103C315.103 235.777 314.313 234.411 312.734 233.536C311.177 232.64 309.268 232.192 307.007 232.192ZM321.481 227.457L320.105 232.576H317.481V236.896H319.85V245.345C319.85 246.987 320.351 248.15 321.354 248.833C322.377 249.515 323.828 249.856 325.705 249.856C326.302 249.856 327.007 249.803 327.817 249.696C328.628 249.59 329.289 249.451 329.801 249.28V245.536H328.009C327.326 245.536 326.858 245.366 326.602 245.024C326.346 244.662 326.217 244.096 326.217 243.328V236.896H329.801V232.576H326.217V227.457H321.481ZM341.108 232.192C338.271 232.192 336.084 232.662 334.548 233.601C333.033 234.539 332.276 235.808 332.276 237.408C332.276 237.6 332.286 237.75 332.308 237.856H338.58V237.729C338.58 237.217 338.815 236.843 339.284 236.608C339.775 236.374 340.351 236.257 341.012 236.257C341.737 236.257 342.324 236.427 342.771 236.769C343.241 237.11 343.476 237.611 343.476 238.272V239.104C340.788 239.105 338.612 239.265 336.948 239.585C335.284 239.905 334.004 240.502 333.108 241.377C332.234 242.23 331.796 243.478 331.796 245.12C331.796 248.277 333.78 249.856 337.748 249.856C339.092 249.856 340.265 249.664 341.268 249.28C342.27 248.896 343.178 248.384 343.988 247.744C344.287 248.405 344.831 248.928 345.62 249.312C346.431 249.675 347.455 249.856 348.692 249.856C349.332 249.856 349.897 249.803 350.388 249.696C350.878 249.611 351.252 249.526 351.508 249.44C351.785 249.334 351.955 249.26 352.02 249.217V245.536H350.868C350.527 245.536 350.27 245.419 350.1 245.185C349.929 244.95 349.844 244.651 349.844 244.289V237.696C349.844 235.755 349.033 234.358 347.412 233.505C345.791 232.63 343.69 232.192 341.108 232.192ZM362.836 232.192C359.871 232.192 357.545 232.939 355.859 234.433C354.174 235.926 353.332 238.123 353.332 241.024C353.332 243.926 354.174 246.123 355.859 247.616C357.545 249.11 359.871 249.856 362.836 249.856C365.609 249.856 367.849 249.259 369.556 248.064C371.284 246.87 372.147 245.046 372.147 242.593H366.228C366.227 244.555 365.14 245.536 362.964 245.536C360.788 245.536 359.699 244.341 359.699 241.952V240.129C359.699 237.718 360.745 236.513 362.836 236.513C364.926 236.513 365.972 237.473 365.972 239.393H372.147C372.147 236.961 371.284 235.158 369.556 233.984C367.849 232.79 365.609 232.192 362.836 232.192ZM440.555 232.192C437.589 232.192 435.263 232.939 433.578 234.433C431.893 235.926 431.051 238.123 431.051 241.024C431.051 243.99 431.915 246.209 433.643 247.681C435.371 249.131 437.803 249.856 440.938 249.856C443.925 249.856 446.198 249.281 447.755 248.129C449.312 246.977 450.091 245.376 450.091 243.328H443.914C443.914 244.075 443.658 244.672 443.146 245.12C442.656 245.568 441.877 245.793 440.811 245.793C439.637 245.793 438.773 245.483 438.219 244.864C437.685 244.246 437.418 243.328 437.418 242.112H450.091V241.024C450.091 238.038 449.269 235.819 447.626 234.368C446.005 232.918 443.648 232.192 440.555 232.192ZM479.773 232.192C476.808 232.192 474.482 232.939 472.797 234.433C471.112 235.926 470.27 238.123 470.27 241.024C470.27 243.99 471.133 246.209 472.861 247.681C474.589 249.131 477.021 249.856 480.157 249.856C483.144 249.856 485.416 249.281 486.974 248.129C488.531 246.977 489.31 245.376 489.31 243.328H483.133C483.133 244.075 482.877 244.672 482.365 245.12C481.875 245.568 481.096 245.793 480.029 245.793C478.856 245.793 477.992 245.483 477.438 244.864C476.904 244.246 476.637 243.328 476.637 242.112H489.31V241.024C489.31 238.038 488.487 235.819 486.845 234.368C485.223 232.918 482.866 232.192 479.773 232.192ZM511.773 232.192C508.808 232.192 506.482 232.939 504.797 234.433C503.112 235.926 502.27 238.123 502.27 241.024C502.27 243.926 503.112 246.123 504.797 247.616C506.482 249.11 508.808 249.856 511.773 249.856C514.739 249.856 517.064 249.109 518.749 247.616C520.456 246.102 521.31 243.904 521.31 241.024C521.31 238.145 520.456 235.958 518.749 234.465C517.064 232.95 514.739 232.192 511.773 232.192ZM554.461 232.192C551.496 232.192 549.17 232.939 547.484 234.433C545.799 235.926 544.957 238.123 544.957 241.024C544.957 243.99 545.821 246.209 547.549 247.681C549.277 249.131 551.709 249.856 554.845 249.856C557.831 249.856 560.104 249.281 561.661 248.129C563.218 246.977 563.997 245.376 563.997 243.328H557.82C557.82 244.075 557.565 244.672 557.053 245.12C556.562 245.568 555.783 245.793 554.717 245.793C553.543 245.793 552.68 245.483 552.125 244.864C551.592 244.246 551.324 243.328 551.324 242.112H563.997V241.024C563.997 238.038 563.175 235.819 561.532 234.368C559.911 232.918 557.554 232.192 554.461 232.192ZM27.9854 227.457V249.473H35.0576V241.568H44.2734V236.513H35.0576V232.736H45.7773V227.457H27.9854ZM58.0596 232.16C57.0142 232.16 56.0752 232.417 55.2432 232.929C54.4112 233.419 53.8029 234.155 53.4189 235.137L53.0029 232.576H47.7871V249.473H54.1553V241.952C54.1553 240.608 54.4436 239.595 55.0195 238.912C55.6169 238.23 56.577 237.889 57.8994 237.889H59.9473V232.545C59.9473 232.524 59.7551 232.459 59.3711 232.353C58.9872 232.225 58.55 232.16 58.0596 232.16ZM95.498 232.192C94.3034 232.192 93.1612 232.459 92.0732 232.992C91.0067 233.526 90.1427 234.241 89.4814 235.137L89.0654 232.576H83.8496V249.473H90.2178V239.553C90.2178 238.806 90.4635 238.177 90.9541 237.665C91.4448 237.153 92.0847 236.896 92.874 236.896C93.5564 236.897 94.0788 237.121 94.4414 237.568C94.8254 237.995 95.0176 238.572 95.0176 239.297V249.473H101.386V238.528C101.386 236.48 100.895 234.912 99.9141 233.824C98.9328 232.736 97.4605 232.192 95.498 232.192ZM163.061 232.192C161.866 232.192 160.724 232.459 159.636 232.992C158.569 233.526 157.705 234.241 157.044 235.137L156.628 232.576H151.412V249.473H157.78V239.553C157.78 238.806 158.026 238.177 158.517 237.665C159.007 237.153 159.647 236.896 160.437 236.896C161.119 236.897 161.641 237.121 162.004 237.568C162.388 237.995 162.58 238.572 162.58 239.297V249.473H168.948V238.528C168.948 236.48 168.458 234.912 167.477 233.824C166.495 232.736 165.023 232.192 163.061 232.192ZM224.767 227.457V249.473H231.839V241.568H241.055V236.513H231.839V232.736H242.559V227.457H224.767ZM267.229 226.272V249.473H273.598V226.272H267.229ZM277.886 226.272V249.473H284.254V226.272H277.886ZM374.912 226.24V249.473H381.28V245.824L383.488 243.681L387.04 249.473H394.272L387.872 239.393L394.112 232.576H386.688L381.28 239.041V226.24H374.912ZM407.36 227.457V249.473H416.896C424.598 249.473 428.448 245.803 428.448 238.465C428.448 231.126 424.598 227.457 416.896 227.457H407.36ZM450.398 232.576L456.799 249.473H463.486L469.95 232.576H463.679L460.574 243.104H460.351L457.246 232.576H450.398ZM492.604 226.272V249.473H498.973V226.272H492.604ZM577.341 232.16C576.295 232.16 575.356 232.417 574.524 232.929C573.692 233.419 573.084 234.155 572.7 235.137L572.284 232.576H567.068V249.473H573.437V241.952C573.437 240.608 573.725 239.595 574.301 238.912C574.898 238.23 575.858 237.889 577.181 237.889H579.229V232.545C579.229 232.524 579.036 232.459 578.652 232.353C578.268 232.225 577.831 232.16 577.341 232.16ZM343.476 243.553C343.476 244.214 343.156 244.769 342.516 245.217C341.897 245.665 341.172 245.889 340.34 245.889C338.889 245.889 338.164 245.355 338.164 244.289C338.164 243.628 338.591 243.105 339.444 242.721C340.319 242.315 341.663 242.112 343.476 242.112V243.553ZM71.2422 236.513C73.354 236.513 74.4102 237.718 74.4102 240.129V241.952C74.4102 244.341 73.354 245.536 71.2422 245.536C69.1515 245.536 68.1055 244.341 68.1055 241.952V240.129C68.1055 237.718 69.1515 236.513 71.2422 236.513ZM511.773 236.513C513.885 236.513 514.941 237.718 514.941 240.129V241.952C514.941 244.341 513.885 245.536 511.773 245.536C509.683 245.536 508.637 244.341 508.637 241.952V240.129C508.637 237.718 509.683 236.513 511.773 236.513ZM181.108 236.896C182.047 236.897 182.75 237.238 183.22 237.921C183.689 238.582 183.924 239.446 183.924 240.513V241.568C183.924 242.635 183.689 243.499 183.22 244.16C182.75 244.821 182.047 245.152 181.108 245.152C179.274 245.152 178.355 244.065 178.355 241.889V240.192C178.356 237.995 179.274 236.896 181.108 236.896ZM533.533 236.896C535.368 236.897 536.285 237.985 536.285 240.16V241.856C536.285 244.054 535.368 245.152 533.533 245.152C532.595 245.152 531.89 244.821 531.421 244.16C530.952 243.478 530.717 242.603 530.717 241.536V240.48C530.717 239.414 530.952 238.55 531.421 237.889C531.89 237.227 532.595 236.896 533.533 236.896ZM416.769 232.736C419.734 232.736 421.216 234.326 421.216 237.505V239.425C421.216 242.603 419.734 244.192 416.769 244.192H414.433V232.736H416.769ZM118.74 238.145V243.2H126.9V238.145H118.74ZM287.646 238.145V243.2H295.807V238.145H287.646ZM139.061 236.257C139.956 236.257 140.65 236.512 141.141 237.024C141.653 237.536 141.908 238.23 141.908 239.104H135.7C135.935 237.206 137.055 236.257 139.061 236.257ZM440.811 236.257C441.706 236.257 442.4 236.512 442.891 237.024C443.403 237.536 443.658 238.23 443.658 239.104H437.45C437.685 237.206 438.805 236.257 440.811 236.257ZM480.029 236.257C480.925 236.257 481.619 236.512 482.109 237.024C482.621 237.536 482.877 238.23 482.877 239.104H476.669C476.904 237.206 478.024 236.257 480.029 236.257ZM554.717 236.257C555.613 236.257 556.306 236.512 556.797 237.024C557.309 237.536 557.564 238.23 557.564 239.104H551.356C551.591 237.206 552.711 236.257 554.717 236.257ZM152.373 119.8C140.981 119.8 132.182 122.712 125.974 128.536C119.83 134.296 116.758 142.776 116.758 153.976C116.758 165.176 119.83 173.688 125.974 179.512C132.182 185.272 140.981 188.152 152.373 188.152C163.765 188.152 172.565 185.24 178.773 179.416C184.981 173.592 188.086 165.112 188.086 153.976C188.086 142.84 184.981 134.36 178.773 128.536C172.565 122.712 163.765 119.8 152.373 119.8ZM256.343 135.16C247.447 135.16 240.471 137.4 235.415 141.88C230.359 146.36 227.831 152.952 227.831 161.656C227.831 170.552 230.423 177.208 235.607 181.624C240.791 185.976 248.087 188.152 257.495 188.152C266.455 188.152 273.271 186.424 277.943 182.968C282.615 179.512 284.951 174.712 284.951 168.568H266.423C266.423 170.808 265.655 172.6 264.119 173.944C262.647 175.288 260.311 175.96 257.111 175.96C253.591 175.96 250.999 175.032 249.335 173.176C247.735 171.32 246.935 168.568 246.935 164.92H284.951V161.656C284.951 152.696 282.487 146.04 277.559 141.688C272.695 137.336 265.623 135.16 256.343 135.16ZM320.374 135.16C311.478 135.16 304.502 137.4 299.446 141.88C294.39 146.36 291.862 152.952 291.862 161.656C291.862 170.36 294.39 176.952 299.446 181.432C304.502 185.912 311.478 188.152 320.374 188.152C328.694 188.152 335.414 186.36 340.534 182.776C345.718 179.192 348.31 173.72 348.311 166.36H330.55C330.55 172.248 327.286 175.192 320.758 175.192C314.23 175.192 310.966 171.608 310.966 164.44V158.968C310.966 151.736 314.102 148.12 320.374 148.12C326.646 148.12 329.782 151 329.782 156.76H348.311C348.31 149.464 345.718 144.056 340.534 140.536C335.414 136.952 328.694 135.16 320.374 135.16ZM446.843 135.16C437.947 135.16 430.971 137.4 425.915 141.88C420.859 146.36 418.331 152.952 418.331 161.656C418.331 170.36 420.859 176.952 425.915 181.432C430.971 185.912 437.947 188.152 446.843 188.152C455.739 188.152 462.715 185.912 467.771 181.432C472.891 176.888 475.451 170.296 475.451 161.656C475.451 153.016 472.891 146.456 467.771 141.976C462.715 137.432 455.739 135.16 446.843 135.16ZM597.731 135.16C590.179 135.16 584.035 136.472 579.299 139.096C574.627 141.72 572.291 146.136 572.291 152.344C572.291 156.184 573.379 159.192 575.555 161.368C577.731 163.48 580.259 164.984 583.139 165.88C586.083 166.776 589.827 167.608 594.371 168.376C598.147 169.016 600.867 169.624 602.531 170.2C604.195 170.776 605.027 171.704 605.027 172.984C605.027 175.48 602.37 176.728 597.059 176.728C595.075 176.727 593.186 176.312 591.395 175.48C589.667 174.584 588.771 173.048 588.707 170.872V170.488H570.947C570.947 174.52 572.195 177.848 574.691 180.472C577.187 183.096 580.419 185.048 584.387 186.328C588.355 187.544 592.579 188.152 597.059 188.152C604.866 188.152 611.171 186.776 615.971 184.024C620.835 181.272 623.267 176.664 623.267 170.2C623.267 166.232 622.147 163.16 619.907 160.984C617.667 158.744 615.043 157.208 612.035 156.376C609.027 155.48 605.283 154.712 600.803 154.072C597.155 153.496 594.531 152.952 592.931 152.44C591.331 151.928 590.531 151.064 590.531 149.848C590.531 147.672 592.836 146.584 597.443 146.584C599.171 146.584 600.611 146.904 601.763 147.544C603.427 148.312 604.259 149.624 604.259 151.48H622.019C622.019 145.913 619.651 141.816 614.915 139.192C610.243 136.504 604.515 135.16 597.731 135.16ZM198.838 187H217.942V117.4H198.838V187ZM356.604 187H375.708V157.24C375.708 155 376.444 153.112 377.916 151.576C379.388 150.04 381.308 149.272 383.676 149.272C385.724 149.272 387.292 149.944 388.38 151.288C389.532 152.568 390.107 154.296 390.107 156.472V187H409.212V154.168C409.212 148.024 407.74 143.32 404.796 140.056C401.852 136.792 397.436 135.16 391.548 135.16C388.54 135.16 385.66 135.736 382.908 136.888C380.156 137.976 377.756 139.544 375.708 141.592V117.4H356.604V187ZM495.747 187H514.371L522.339 158.776H522.723L530.595 187H549.219L567.843 136.312H549.219L541.442 166.264H540.771L533.091 136.312H514.083L506.115 166.264H505.442L497.763 136.312H477.219L495.747 187ZM632.322 187H651.427V176.056L658.051 169.624L668.706 187H690.402L671.202 156.76L689.923 136.312H667.65L651.427 155.704V117.304H632.322V187ZM697.025 187H716.13V136.312H697.025V187ZM446.843 148.12C453.179 148.12 456.347 151.736 456.347 158.968V164.44C456.347 171.608 453.179 175.192 446.843 175.192C440.571 175.192 437.435 171.608 437.435 164.44V158.968C437.435 151.736 440.571 148.12 446.843 148.12ZM152.373 135.64C156.917 135.64 160.373 137.016 162.741 139.768C165.173 142.52 166.39 146.232 166.39 150.904V157.048C166.39 161.72 165.173 165.432 162.741 168.184C160.373 170.936 156.917 172.312 152.373 172.312C147.829 172.311 144.374 170.936 142.006 168.184C139.638 165.432 138.453 161.72 138.453 157.048V150.904C138.453 146.232 139.638 142.52 142.006 139.768C144.374 137.016 147.829 135.64 152.373 135.64ZM257.111 147.352C259.799 147.352 261.879 148.12 263.351 149.656C264.887 151.192 265.655 153.272 265.655 155.896H247.031C247.735 150.2 251.095 147.352 257.111 147.352ZM697.025 130.36H716.13V117.4H697.025V130.36ZM269.707 94.9902C268.811 99.6622 265.963 101.998 261.163 101.998H253.482V113.422C256.682 114.574 260.363 115.15 264.522 115.15C271.37 115.15 276.683 113.294 280.459 109.582C284.299 105.934 287.531 100.558 290.155 93.4541L308.203 44.3018H289.387L280.459 77.998H279.787L270.091 44.3018H249.547L269.707 94.9902ZM338.091 43.1504C330.539 43.1504 324.394 44.4619 319.658 47.0859C314.986 49.7099 312.65 54.1261 312.65 60.334C312.65 64.1739 313.738 67.1824 315.914 69.3584C318.09 71.4703 320.618 72.9741 323.498 73.8701C326.442 74.7661 330.186 75.5982 334.73 76.3662C338.506 77.0062 341.227 77.6144 342.891 78.1904C344.554 78.7664 345.387 79.6947 345.387 80.9746C345.386 83.4704 342.73 84.7178 337.418 84.7178C335.434 84.7177 333.546 84.3026 331.754 83.4707C330.026 82.5747 329.13 81.0382 329.066 78.8623V78.4785H311.307C311.307 82.5104 312.555 85.838 315.051 88.4619C317.547 91.0858 320.778 93.0384 324.746 94.3184C328.714 95.5343 332.938 96.1425 337.418 96.1426C345.226 96.1426 351.53 94.7665 356.33 92.0146C361.194 89.2627 363.626 84.6543 363.626 78.1904C363.626 74.2226 362.506 71.1506 360.267 68.9746C358.027 66.7346 355.402 65.1982 352.395 64.3662C349.387 63.4702 345.642 62.7025 341.162 62.0625C337.514 61.4865 334.89 60.9427 333.29 60.4307C331.69 59.9187 330.891 59.0538 330.891 57.8379C330.891 55.6621 333.195 54.5742 337.803 54.5742C339.53 54.5743 340.97 54.8943 342.122 55.5342C343.786 56.3022 344.618 57.6147 344.618 59.4707H362.378C362.378 53.9028 360.01 49.8066 355.274 47.1826C350.603 44.4947 344.875 43.1504 338.091 43.1504ZM377.386 44.3018H369.514V57.2627H376.618V82.6064C376.618 87.5343 378.122 91.0223 381.13 93.0703C384.202 95.1183 388.554 96.1425 394.186 96.1426C395.977 96.1426 398.09 95.9821 400.521 95.6621C402.953 95.3421 404.938 94.926 406.474 94.4141V83.1826H401.098C399.05 83.1826 397.642 82.6703 396.874 81.6465C396.106 80.5585 395.722 78.8624 395.722 76.5586V57.2627H406.474V44.3018H395.722V28.9424H381.514L377.386 44.3018ZM472.363 43.1504C463.851 43.1504 457.291 44.558 452.683 47.374C448.139 50.1899 445.867 53.9981 445.867 58.7979C445.867 59.3738 445.899 59.8226 445.963 60.1426H464.779V59.7578C464.779 58.2221 465.483 57.1024 466.891 56.3984C468.363 55.6944 470.091 55.3418 472.075 55.3418C474.251 55.3418 476.011 55.8542 477.354 56.8779C478.762 57.9019 479.467 59.4066 479.467 61.3906V63.8867C471.403 63.8867 464.875 64.3662 459.883 65.3262C454.891 66.2861 451.051 68.0783 448.363 70.7021C445.739 73.2621 444.427 77.0066 444.427 81.9346C444.427 91.4063 450.379 96.1426 462.283 96.1426C466.315 96.1425 469.835 95.566 472.843 94.4141C475.851 93.2621 478.571 91.7266 481.003 89.8066C481.899 91.7903 483.531 93.3579 485.898 94.5098C488.33 95.5978 491.403 96.1426 495.115 96.1426C497.035 96.1426 498.731 95.9821 500.203 95.6621C501.675 95.4062 502.795 95.1505 503.562 94.8945C504.394 94.5747 504.906 94.3507 505.099 94.2227V83.1826H501.643C500.619 83.1825 499.851 82.8299 499.339 82.126C498.827 81.4221 498.571 80.5263 498.571 79.4385V59.6621C498.571 53.8382 496.138 49.6459 491.274 47.0859C486.411 44.4622 480.107 43.1504 472.363 43.1504ZM128.494 94.9902H149.711V80.2061L161.23 70.7979L174.959 94.9902H200.015L175.822 56.1104L199.534 28.9424H173.23L149.711 57.166V28.9424H128.494V94.9902ZM237.936 43.0547C234.8 43.0547 231.983 43.8224 229.487 45.3584C226.991 46.8304 225.168 49.0385 224.016 51.9824L222.768 44.3018H207.119V94.9902H226.224V72.4307C226.224 68.3988 227.088 65.3585 228.815 63.3105C230.607 61.2626 233.487 60.2383 237.455 60.2383H243.6V44.2061C243.599 44.1419 243.022 43.9496 241.871 43.6299C240.719 43.246 239.407 43.0547 237.936 43.0547ZM416.01 94.9902H435.114V44.3018H416.01V94.9902ZM546.282 43.1504C542.698 43.1504 539.274 43.9498 536.01 45.5498C532.81 47.1498 530.218 49.2945 528.234 51.9824L526.986 44.3018H511.338V94.9902H530.442V65.2305C530.442 62.9905 531.178 61.1024 532.65 59.5664C534.122 58.0304 536.042 57.2627 538.41 57.2627C540.458 57.2627 542.026 57.9343 543.114 59.2783C544.266 60.5582 544.842 62.2861 544.842 64.4619V94.9902H563.946V62.1582C563.946 56.0142 562.474 51.3099 559.53 48.0459C556.586 44.782 552.17 43.1504 546.282 43.1504ZM479.467 77.2305C479.467 79.2144 478.507 80.8787 476.587 82.2227C474.731 83.5666 472.555 84.2383 470.059 84.2383C465.707 84.2382 463.531 82.6382 463.531 79.4385C463.531 77.4545 464.811 75.8864 467.371 74.7344C469.995 73.5184 474.027 72.9102 479.467 72.9102V77.2305ZM416.01 38.3506H435.114V25.3906H416.01V38.3506Z" fill="#222222"/>
</svg>
