<svg width="16" height="20" viewBox="0 0 16 20" fill="none" xmlns="http://www.w3.org/2000/svg">
<path d="M0 5.43151C0 3.51544 1.61317 1.96358 3.60494 1.96358C4.17284 1.96358 4.70782 2.09026 5.18519 2.31196C5.53086 0.989707 6.84774 0 8.41152 0C9.94239 0 11.2263 0.934283 11.6049 2.20111C11.9177 2.09026 12.2634 2.02692 12.6173 2.02692C14.2222 2.02692 15.5309 3.27791 15.5309 4.82977C15.5309 5.47902 15.3004 6.08076 14.9136 6.55582C15.5885 7.23674 16 8.1631 16 9.17656C16 11.2827 14.2305 12.985 12.0412 12.985C11.8519 12.985 11.6708 12.9691 11.4897 12.9454L9.76132 14.8535C9.80247 16.7379 10.3374 20 10.3374 20H7.63786L8.18107 17.1338L6.04938 13.7767C5.73662 13.8401 5.40741 13.8717 5.06996 13.8717C2.40329 13.8717 0.238683 11.7894 0.238683 9.22407C0.238683 8.5669 0.378599 7.94933 0.633743 7.37926C0.230451 6.83294 0 6.15202 0 5.43151ZM9.74486 13.8797L10.5926 12.8108C10.2963 12.7474 10.0082 12.6366 9.75309 12.5099C9.74486 12.5099 9.72016 12.5099 9.71193 12.5099C9.72016 12.787 9.72839 13.4204 9.74486 13.8797ZM8.21399 15.7799C8.23045 15.0435 8.25514 13.2067 8.2716 12.7158C8.25514 12.7237 8.23868 12.7316 8.23045 12.7395C7.85185 13.0562 7.41564 13.3254 6.93827 13.5154L8.21399 15.7799Z" fill="#222222"/>
</svg>
