<?xml version="1.0" encoding="iso-8859-1"?>
<!-- Uploaded to: SVG Repo, www.svgrepo.com, Generator: SVG Repo Mixer Tools -->
<svg fill="#000000" height="800px" width="800px" version="1.1" id="Capa_1" xmlns="http://www.w3.org/2000/svg" xmlns:xlink="http://www.w3.org/1999/xlink" 
	 viewBox="0 0 463 463" xml:space="preserve">
<path d="M317.577,86.767C293.319,30.814,262.75,0,231.5,0s-61.819,30.814-86.077,86.767C124.807,134.319,112,192.843,112,239.5
	c0,59.349,43.286,109.338,101.426,118.135L208.405,448H199.5c-4.142,0-7.5,3.358-7.5,7.5s3.358,7.5,7.5,7.5h64
	c4.142,0,7.5-3.358,7.5-7.5s-3.358-7.5-7.5-7.5h-8.905l-5.02-90.361c27.112-4.119,52-17.477,70.556-37.982
	C340.037,297.659,351,269.192,351,239.5C351,192.843,338.193,134.319,317.577,86.767z M223.428,448l8.056-145.001
	c0.005,0,0.011,0.001,0.016,0.001s0.011-0.001,0.016-0.001L239.572,448H223.428z M309.008,309.592
	c-15.904,17.575-37.125,29.125-60.271,32.971l-2.826-50.868l38.892-38.892c2.929-2.929,2.929-7.678,0-10.606
	c-2.929-2.929-7.678-2.929-10.606,0l-29.402,29.402l-1.831-32.956l17.839-17.839c2.929-2.929,2.929-7.678,0-10.606
	c-2.929-2.929-7.678-2.929-10.606,0l-8.349,8.35l-2.859-51.462c-0.221-3.975-3.508-7.084-7.488-7.084s-7.268,3.109-7.488,7.084
	l-4.543,81.778l-30.665-30.665c-2.929-2.929-7.678-2.929-10.606,0c-2.929,2.929-2.929,7.678,0,10.606l40.155,40.155l-4.09,73.625
	C164.145,334.302,127,290.917,127,239.5c0-44.06,12.633-101.669,32.185-146.767C180.603,43.333,206.96,15,231.5,15
	s50.897,28.333,72.315,77.733C323.367,137.831,336,195.44,336,239.5C336,265.465,326.414,290.357,309.008,309.592z"/>
</svg>