<svg width="20" height="20" viewBox="0 0 20 20" fill="none" xmlns="http://www.w3.org/2000/svg">
<path d="M14.1609 10.6119C14.6777 10.6263 16.3446 10.4096 17.5486 9.70191C15.1414 8.54023 12.8994 5.60918 12.8994 5.60918C12.8994 5.60918 14.0975 5.77312 15.6274 4.95215C12.7649 3.85773 10.0003 0 10.0003 0C10.0003 0 7.23578 3.85773 4.37258 4.95215C5.90309 5.77312 7.10125 5.60918 7.10125 5.60918C7.10125 5.60918 4.85863 8.54019 2.45203 9.70191C3.65535 10.4095 5.32289 10.6263 5.83969 10.6119C4.8548 11.6141 2.54555 13.5366 0 14.6002C1.47867 15.5112 4.60117 16.3475 7.80184 16.6284L8.07465 19.1047H11.926L12.1988 16.6284C15.3995 16.3475 18.5213 15.5112 20 14.6002C17.4551 13.5366 15.1452 11.6141 14.1609 10.6119Z" fill="#222222"/>
</svg>
